<?xml version="1.0" encoding="UTF-8"?>
<svg version="1.1" xmlns="http://www.w3.org/2000/svg" width="540" height="140" viewBox="0 0 540 140">
  <g opacity="0.3">
    <g transform="scale(0.273)">
      <rect x="72" y="72" width="390" height="410" rx="44" fill="#0C3A36" opacity="0.5"/>
      <rect x="46" y="46" width="390" height="410" rx="44" fill="#0A6B62" opacity="0.7"/>
      <rect x="20" y="20" width="390" height="410" rx="44" fill="#0D9488"/>
      <g transform="translate(-143.6, 28.2) scale(3.26)">
        <g transform="translate(55, 18)">
          <path fill-rule="evenodd" fill="#F0FDFA" d="M 12 82 Q 12 68 20 60 L 20 32 Q 20 0 50 0 L 62 0 Q 96 0 96 30 Q 96 56 68 60 L 46 60 Q 36 60 30 68 Q 28 71 28 75 L 28 82 Q 28 92 20 92 Q 12 92 12 82 Z M 36 12 L 58 12 Q 78 12 78 30 Q 78 48 60 48 L 38 48 Q 36 48 36 50 L 36 12 Z"/>
          <path d="M 50 63 L 65 63 Q 73 63 79 71 L 94 91 Q 98 97 91 97 L 78 97 Q 71 97 65 89 L 52 72 Q 46 63 50 63 Z" fill="#F0FDFA"/>
          <line x1="57" y1="30" x2="57" y2="14" stroke="#D4A84B" stroke-width="3" stroke-linecap="round" opacity="0.8"/>
          <line x1="57" y1="30" x2="57" y2="46" stroke="#D4A84B" stroke-width="3" stroke-linecap="round" opacity="0.8"/>
          <line x1="57" y1="30" x2="41" y2="30" stroke="#D4A84B" stroke-width="3" stroke-linecap="round" opacity="0.8"/>
          <line x1="57" y1="30" x2="73" y2="30" stroke="#D4A84B" stroke-width="3" stroke-linecap="round" opacity="0.8"/>
          <circle cx="57" cy="14" r="4" fill="#D4A84B" opacity="0.9"/>
          <circle cx="57" cy="46" r="4" fill="#D4A84B" opacity="0.9"/>
          <circle cx="41" cy="30" r="4" fill="#D4A84B" opacity="0.9"/>
          <circle cx="73" cy="30" r="4" fill="#D4A84B" opacity="0.9"/>
          <circle cx="57" cy="30" r="8" fill="#D4A84B"/>
        </g>
      </g>
    </g>
    <text x="148" y="98" font-family="system-ui,-apple-system,'Segoe UI',sans-serif"
      font-size="78" font-weight="600" fill="#0D9488" letter-spacing="-1">Redivivus</text>
  </g>
</svg>
